<?xml version="1.0" standalone="no"?>
<!DOCTYPE svg PUBLIC "-//W3C//DTD SVG 20010904//EN"
 "http://www.w3.org/TR/2001/REC-SVG-20010904/DTD/svg10.dtd">
<svg version="1.0" xmlns="http://www.w3.org/2000/svg"
 width="557.000000pt" height="557.000000pt" viewBox="0 0 557.000000 557.000000"
 preserveAspectRatio="xMidYMid meet">
<metadata>
Created by potrace 1.11, written by Peter Selinger 2001-2013
</metadata>
<g transform="translate(0.000000,557.000000) scale(0.100000,-0.100000)"
fill="#000000" stroke="none">
<path d="M2688 4116 c-1 -2 -32 -6 -68 -10 -96 -9 -128 -15 -200 -38 -427
-138 -707 -534 -695 -981 2 -56 6 -120 10 -142 71 -433 416 -775 840 -834 70
-9 234 -7 290 4 127 26 217 58 315 112 235 131 404 351 481 628 32 116 36 336
9 459 -45 205 -133 367 -276 510 -164 164 -382 266 -599 282 -44 3 -85 7 -92
9 -6 2 -13 2 -15 1z m131 -531 c228 -60 384 -277 367 -510 -9 -131 -56 -233
-148 -321 -98 -94 -204 -138 -333 -137 -315 3 -544 308 -462 619 34 130 132
251 252 310 109 53 220 67 324 39z"/>
<path d="M2608 1985 c-2 -1 -39 -6 -83 -10 -99 -9 -274 -52 -380 -94 -192 -76
-375 -207 -527 -378 -51 -57 -141 -190 -135 -200 3 -5 155 -8 339 -8 l333 0
35 27 c78 58 224 119 326 133 27 4 58 9 69 12 29 5 219 5 236 -1 8 -3 30 -7
49 -10 105 -16 238 -67 334 -129 l50 -32 338 0 c186 0 338 2 338 6 0 7 -94
144 -127 184 -81 99 -287 279 -353 308 -8 4 -30 16 -47 27 -109 66 -297 127
-478 155 -42 7 -311 15 -317 10z"/>
</g>
</svg>
